name C:\longbin\222Code\MOtoNMS v2.2\TestData\ElaboratedData\Ruoli\dynamicElaborations\11\\Gait6\Gait6.mot
datacolumns 37
datarows 11
range 3.545 3.555
endheader

time	    ground_force1_vx	    ground_force1_vy	    ground_force1_vz	    ground_force1_px	    ground_force1_py	    ground_force1_pz	    ground_force2_vx	    ground_force2_vy	    ground_force2_vz	    ground_force2_px	    ground_force2_py	    ground_force2_pz	    ground_force3_vx	    ground_force3_vy	    ground_force3_vz	    ground_force3_px	    ground_force3_py	    ground_force3_pz	    ground_force4_vx	    ground_force4_vy	    ground_force4_vz	    ground_force4_px	    ground_force4_py	    ground_force4_pz	    ground_torque1_x	    ground_torque1_y	    ground_torque1_z	    ground_torque2_x	    ground_torque2_y	    ground_torque2_z	    ground_torque3_x	    ground_torque3_y	    ground_torque3_z	    ground_torque4_x	    ground_torque4_y	    ground_torque4_z	
3.545	          0.00000000	          0.00000000	          0.00000000	          0.00000000	          0.00000000	          0.00000000	          0.00000000	          0.00000000	          0.00000000	          0.00000000	          0.00000000	          0.00000000	         -1.94740988	         91.68886752	        -26.35290471	          0.13206997	          0.00007703	          1.01943820	         49.21370191	        741.18154120	        149.18512256	         -0.11249540	         -0.00013089	          0.46137329	          0.00000000	          0.00000000	          0.00000000	          0.00000000	          0.00000000	          0.00000000	          0.00000000	         -1.87113438	         -0.00000000	         -0.00000000	          0.59022397	          0.00000000	
3.546	          0.00000000	          0.00000000	          0.00000000	          0.00000000	          0.00000000	          0.00000000	          0.00000000	          0.00000000	          0.00000000	          0.00000000	          0.00000000	          0.00000000	         -1.81808972	         87.26527255	        -24.81064980	          0.13215949	          0.00007703	          1.01800160	         49.68129497	        743.55358823	        149.12746155	         -0.11262737	         -0.00013089	          0.46107009	          0.00000000	          0.00000000	          0.00000000	          0.00000000	          0.00000000	          0.00000000	          0.00000000	         -1.87257652	         -0.00000000	         -0.00000000	          0.61374771	          0.00000000	
3.547	          0.00000000	          0.00000000	          0.00000000	          0.00000000	          0.00000000	          0.00000000	          0.00000000	          0.00000000	          0.00000000	          0.00000000	          0.00000000	          0.00000000	         -1.69565972	         82.96561962	        -23.31160794	          0.13224976	          0.00007703	          1.01651480	         50.14558322	        745.87356976	        149.04456102	         -0.11275890	         -0.00013089	          0.46077045	          0.00000000	          0.00000000	          0.00000000	          0.00000000	          0.00000000	          0.00000000	          0.00000000	         -1.87396905	         -0.00000000	         -0.00000000	          0.63641863	          0.00000000	
3.548	          0.00000000	          0.00000000	          0.00000000	          0.00000000	          0.00000000	          0.00000000	          0.00000000	          0.00000000	          0.00000000	          0.00000000	          0.00000000	          0.00000000	         -1.57987978	         78.78863670	        -21.85610618	          0.13234079	          0.00007703	          1.01497386	         50.60660619	        748.14034382	        148.93656957	         -0.11289003	         -0.00013089	          0.46047436	          0.00000000	          0.00000000	          0.00000000	          0.00000000	          0.00000000	          0.00000000	          0.00000000	         -1.87532352	         -0.00000000	         -0.00000000	          0.65822698	          0.00000000	
3.549	          0.00000000	          0.00000000	          0.00000000	          0.00000000	          0.00000000	          0.00000000	          0.00000000	          0.00000000	          0.00000000	          0.00000000	          0.00000000	          0.00000000	         -1.47051778	         74.73299347	        -20.44438834	          0.13243258	          0.00007703	          1.01337432	         51.06438493	        750.35272590	        148.80364221	         -0.11302076	         -0.00013089	          0.46018181	          0.00000000	          0.00000000	          0.00000000	          0.00000000	          0.00000000	          0.00000000	          0.00000000	         -1.87665062	         -0.00000000	         -0.00000000	          0.67916543	          0.00000000	
3.55	          0.00000000	          0.00000000	          0.00000000	          0.00000000	          0.00000000	          0.00000000	          0.00000000	          0.00000000	          0.00000000	          0.00000000	          0.00000000	          0.00000000	         -1.36734993	         70.79730915	        -19.07661598	          0.13252517	          0.00007703	          1.01171109	         51.51892267	        752.50949656	        148.64594095	         -0.11315112	         -0.00013089	          0.45989277	          0.00000000	          0.00000000	          0.00000000	          0.00000000	          0.00000000	          0.00000000	          0.00000000	         -1.87796037	         -0.00000000	         -0.00000000	          0.69922896	          0.00000000	
3.551	          0.00000000	          0.00000000	          0.00000000	          0.00000000	          0.00000000	          0.00000000	          0.00000000	          0.00000000	          0.00000000	          0.00000000	          0.00000000	          0.00000000	         -1.27016084	         66.98016111	        -17.75287027	          0.13261858	          0.00007703	          1.00997836	         51.97020530	        754.60941117	        148.46363559	         -0.11328112	         -0.00013089	          0.45960722	          0.00000000	          0.00000000	          0.00000000	          0.00000000	          0.00000000	          0.00000000	          0.00000000	         -1.87926222	         -0.00000000	         -0.00000000	          0.71841489	          0.00000000	
3.552	          0.00000000	          0.00000000	          0.00000000	          0.00000000	          0.00000000	          0.00000000	          0.00000000	          0.00000000	          0.00000000	          0.00000000	          0.00000000	          0.00000000	         -1.17874294	         63.28009205	        -16.47315433	          0.13271286	          0.00007703	          1.00816947	         52.41820190	        756.65120886	        148.25690423	         -0.11341078	         -0.00013089	          0.45932513	          0.00000000	          0.00000000	          0.00000000	          0.00000000	          0.00000000	          0.00000000	          0.00000000	         -1.88056512	         -0.00000000	         -0.00000000	          0.73672299	          0.00000000	
3.553	          0.00000000	          0.00000000	          0.00000000	          0.00000000	          0.00000000	          0.00000000	          0.00000000	          0.00000000	          0.00000000	          0.00000000	          0.00000000	          0.00000000	         -1.09289534	         59.69561325	        -15.23739580	          0.13280808	          0.00007703	          1.00627674	         52.86286577	        758.63361807	        148.02593328	         -0.11354011	         -0.00013089	          0.45904646	          0.00000000	          0.00000000	          0.00000000	          0.00000000	          0.00000000	          0.00000000	          0.00000000	         -1.88187742	         -0.00000000	         -0.00000000	          0.75415541	          0.00000000	
3.554	          0.00000000	          0.00000000	          0.00000000	          0.00000000	          0.00000000	          0.00000000	          0.00000000	          0.00000000	          0.00000000	          0.00000000	          0.00000000	          0.00000000	         -1.01242297	         56.22520652	        -14.04544946	          0.13290433	          0.00007703	          1.00429129	         53.30413582	        760.55536077	        147.77091717	         -0.11366914	         -0.00013089	          0.45877117	          0.00000000	          0.00000000	          0.00000000	          0.00000000	          0.00000000	          0.00000000	          0.00000000	         -1.88320677	         -0.00000000	         -0.00000000	          0.77071652	          0.00000000	
3.555	          0.00000000	          0.00000000	          0.00000000	          0.00000000	          0.00000000	          0.00000000	          0.00000000	          0.00000000	          0.00000000	          0.00000000	          0.00000000	          0.00000000	         -0.93713648	         52.86732826	        -12.89709941	          0.13300171	          0.00007703	          1.00220278	         53.74193737	        762.41515825	        147.49205823	         -0.11379788	         -0.00013089	          0.45849923	          0.00000000	          0.00000000	          0.00000000	          0.00000000	          0.00000000	          0.00000000	          0.00000000	         -1.88456022	         -0.00000000	         -0.00000000	          0.78641267	          0.00000000	
